<?xml version="1.0" standalone="no"?>
<!DOCTYPE svg PUBLIC "-//W3C//DTD SVG 20010904//EN"
 "http://www.w3.org/TR/2001/REC-SVG-20010904/DTD/svg10.dtd">
<svg version="1.0" xmlns="http://www.w3.org/2000/svg"
 width="840.000000pt" height="859.000000pt" viewBox="0 0 840.000000 859.000000"
 preserveAspectRatio="xMidYMid meet">

<g transform="translate(0.000000,859.000000) scale(0.100000,-0.100000)"
fill="#000000" stroke="none">
<path d="M3635 7524 c-523 -57 -914 -137 -1310 -269 -945 -314 -1592 -849
-1774 -1464 -17 -57 -31 -121 -31 -143 0 -47 27 -102 69 -143 l31 -29 283 -7
c426 -11 6366 -10 6627 1 124 5 249 14 279 21 50 10 54 14 73 57 17 37 20 59
15 118 -11 143 -120 393 -255 584 -87 124 -317 354 -454 456 -505 372 -1173
630 -1983 764 -214 36 -356 46 -815 60 -437 13 -592 11 -755 -6z m-454 -515
c40 -20 84 -67 94 -100 17 -54 -25 -133 -89 -166 -101 -53 -242 -19 -296 70
-24 39 -25 68 -4 114 46 95 189 135 295 82z m2314 2 c45 -20 92 -70 101 -106
13 -53 -33 -133 -95 -164 -58 -30 -103 -35 -164 -17 -65 19 -114 57 -133 103
-25 60 -19 82 44 145 l59 58 74 0 c50 0 87 -6 114 -19z m-3514 -643 c139 -48
182 -165 91 -250 -110 -102 -324 -58 -355 74 -17 69 26 133 116 167 60 23 100
26 148 9z m2327 -14 c60 -30 100 -77 108 -126 12 -70 -100 -168 -191 -168 -66
0 -145 28 -182 65 -28 28 -33 40 -33 79 0 57 19 97 62 129 72 54 156 61 236
21z m2332 5 c121 -54 153 -150 79 -234 -59 -67 -204 -84 -285 -35 -29 19 -94
102 -94 121 0 47 57 113 125 145 61 29 116 30 175 3z"/>
<path d="M1097 5210 c-84 -10 -139 -42 -223 -126 -91 -92 -121 -161 -135 -299
-17 -184 2 -368 49 -460 34 -68 144 -175 214 -209 51 -25 74 -29 213 -38 243
-15 2870 -5 2918 11 32 10 43 21 63 64 13 29 24 60 24 69 0 38 43 128 80 171
146 166 388 180 536 31 50 -50 83 -111 113 -212 13 -42 34 -86 50 -105 l29
-32 239 -7 c131 -4 585 -5 1008 -3 1189 8 1153 3 1290 165 100 118 120 202
113 483 -4 170 -4 173 -36 239 -60 125 -178 228 -290 254 -33 8 -116 14 -197
14 -206 0 -209 -3 -249 -181 -43 -193 -168 -307 -348 -317 -72 -4 -82 -2 -151
31 -139 66 -193 136 -228 299 -20 98 -36 130 -71 150 -31 17 -2922 25 -3097 8
-162 -15 -175 -22 -200 -108 -73 -245 -333 -318 -497 -140 -23 24 -48 64 -56
89 -9 24 -22 62 -30 84 -9 26 -25 46 -48 60 -34 19 -51 20 -525 21 -269 1
-520 -2 -558 -6z m291 -440 c73 -41 118 -137 103 -216 -17 -90 -96 -166 -188
-180 -143 -21 -276 154 -219 289 18 44 76 98 128 120 53 21 124 16 176 -13z"/>
<path d="M460 3830 c-137 -15 -194 -44 -291 -147 -114 -122 -135 -198 -126
-468 10 -290 61 -383 270 -491 l91 -47 3730 7 c2062 3 3781 11 3843 16 138 11
185 33 276 130 114 121 131 183 125 465 -4 166 -7 197 -26 245 -42 107 -136
203 -251 257 -53 25 -55 25 -435 34 -571 12 -4363 11 -4408 -1 -56 -16 -119
-71 -423 -370 -387 -381 -450 -430 -550 -430 -103 0 -148 35 -521 400 -161
158 -326 314 -365 346 l-72 59 -396 1 c-218 1 -430 -2 -471 -6z"/>
<path d="M1145 2440 c-480 -5 -512 -7 -549 -25 -22 -11 -49 -33 -60 -48 -20
-27 -21 -41 -21 -290 1 -215 4 -274 18 -327 27 -101 108 -256 182 -347 116
-144 306 -275 446 -307 148 -34 368 -38 2579 -43 2161 -5 3259 4 3434 27 178
24 294 88 467 260 119 118 129 131 177 230 59 122 77 186 91 329 20 190 9 395
-24 464 -8 18 -30 41 -47 52 -30 17 -70 19 -618 26 -678 9 -5321 8 -6075 -1z"/>
</g>
</svg>
